<svg id="ČSK" xmlns="http://www.w3.org/2000/svg" viewBox="0 0 360.46 291.53"><defs><style>.cls-1{fill:#004899;}.cls-2{fill:#fff;}.cls-3,.cls-4{fill:#e42313;}.cls-4{fill-rule:evenodd;}.cls-5{fill:none;}</style></defs><title>CSK_logo_RGB</title><path class="cls-1" d="M321.58,216.1v0l-3.27-5.66H279.36l13,22.53h0a5.63,5.63,0,0,0,7.68,2.06h0l19.47-11.24h0A5.63,5.63,0,0,0,321.58,216.1Z"/><path class="cls-2" d="M283.62,212.88h33.26l2.62,4.54a3.18,3.18,0,0,1-1.2,4.23l-19.48,11.24a3.11,3.11,0,0,1-1.57.42,3.16,3.16,0,0,1-2.75-1.58Z"/><path class="cls-1" d="M102.51,245.76c0-1.92,1.12-3,3.74-3a12,12,0,0,1,2.85.34l-.22,1.72a15.4,15.4,0,0,0-2.57-.27c-1.37,0-1.81.47-1.81,1.59v4c0,1.12.44,1.59,1.81,1.59a15.4,15.4,0,0,0,2.57-.27l.22,1.72a12,12,0,0,1-2.85.35c-2.62,0-3.74-1.12-3.74-3Zm2.41-5.87c.59.28.93.47,1.45.77a14.41,14.41,0,0,1,1.47-.77l.53.88c-.75.51-1.29.9-2,1.43-.72-.55-1.28-.94-2-1.43Z"/><path class="cls-1" d="M110.8,242.88h6.43v1.75h-4.44v2.53h4.09v1.75h-4.09v2.71h4.44v1.75H110.8Z"/><path class="cls-1" d="M122.08,253.53a8.63,8.63,0,0,1-3.28-.64l.35-1.55a9.82,9.82,0,0,0,3,.49c1.43,0,1.67-.3,1.67-1.31,0-1.17,0-1.26-1.92-1.67-2.54-.57-2.89-1-2.89-3.28,0-1.9.87-2.84,3.53-2.84a14.77,14.77,0,0,1,3.06.34l-.23,1.67a13.65,13.65,0,0,0-2.8-.32c-1.34,0-1.57.29-1.57,1.2,0,1.2,0,1.23,1.84,1.67,2.82.68,3,1.13,3,3.23S125.18,253.53,122.08,253.53Z"/><path class="cls-1" d="M129.49,253.37h-2V242.88h2Zm2.47-5.31,3.53,5.31h-2.28l-3.44-5.31,3.25-5.18h2.25Z"/><path class="cls-1" d="M143.07,242.88h2.11l-3.38,7.45v3h-2v-3l-3.38-7.45h2.11l2.27,5.29Zm-3.24-1.75a21.1,21.1,0,0,0,2.09-1.4l.74,1.17a14.31,14.31,0,0,1-2.14,1.3Z"/><path class="cls-1" d="M152.28,253.53a8.57,8.57,0,0,1-3.27-.64l.34-1.55a9.87,9.87,0,0,0,3,.49c1.43,0,1.67-.3,1.67-1.31,0-1.17,0-1.26-1.92-1.67-2.53-.57-2.88-1-2.88-3.28,0-1.9.87-2.84,3.53-2.84a14.68,14.68,0,0,1,3,.34l-.22,1.67a13.73,13.73,0,0,0-2.8-.32c-1.34,0-1.58.29-1.58,1.2,0,1.2,0,1.23,1.85,1.67,2.81.68,3,1.13,3,3.23S155.38,253.53,152.28,253.53Z"/><path class="cls-1" d="M164.22,242.88h2.06l-3.13,10.49h-2.93l-3.14-10.49h2.07l2.53,8.74Z"/><path class="cls-1" d="M172.45,251.19h-3.89l-.66,2.18h-2.08l3.31-10.49h2.77l3.31,10.49h-2.08Zm-3.4-1.71H172l-1.43-5Z"/><path class="cls-1" d="M178.91,251.68h4.86v1.69h-7.08V251.7l4.85-7.13h-4.66v-1.69h6.85v1.69Z"/><path class="cls-1" d="M190.87,253.37h-2V242.88h2Zm2.47-5.31,3.53,5.31h-2.28l-3.43-5.31,3.24-5.18h2.25Z"/><path class="cls-1" d="M204.71,251.19h-3.89l-.67,2.18h-2.07l3.3-10.49h2.78l3.3,10.49h-2.08Zm-3.41-1.71h2.9l-1.43-5Z"/><path class="cls-1" d="M211,245.42v8H209V242.88h2.64l4,8v-8h1.93v10.49h-2.64Z"/><path class="cls-1" d="M227.41,250.3c0,1.75-1,3.23-4,3.23s-4-1.48-4-3.23V246c0-1.75,1-3.22,4-3.22s4,1.47,4,3.22Zm-5.95-.11c0,1,.51,1.59,2,1.59s2-.6,2-1.59v-4.13c0-1-.51-1.59-2-1.59s-2,.6-2,1.59Z"/><path class="cls-1" d="M231.34,253.37h-2V242.88h2Z"/><path class="cls-1" d="M236.36,253.53a8.62,8.62,0,0,1-3.27-.64l.34-1.55a9.94,9.94,0,0,0,3,.49c1.43,0,1.66-.3,1.66-1.31,0-1.17,0-1.26-1.92-1.67-2.53-.57-2.88-1-2.88-3.28,0-1.9.87-2.84,3.53-2.84a14.68,14.68,0,0,1,3.05.34l-.22,1.67a13.65,13.65,0,0,0-2.8-.32c-1.34,0-1.57.29-1.57,1.2,0,1.2,0,1.23,1.84,1.67,2.82.68,3,1.13,3,3.23S239.47,253.53,236.36,253.53Z"/><path class="cls-1" d="M244.23,244.63H241.3v-1.75h7.84v1.75h-2.93v8.74h-2Z"/><path class="cls-1" d="M258.4,242.88v7.45c0,1.65-.93,3.2-3.87,3.2s-3.88-1.55-3.88-3.2v-7.45h2v7.29c0,1,.49,1.61,1.89,1.61s1.89-.59,1.89-1.61v-7.29Zm-3.89-.6a1.18,1.18,0,0,1-1.29-1.22,1.29,1.29,0,1,1,1.29,1.22Zm0-1.78a.55.55,0,1,0,.52.56A.5.5,0,0,0,254.51,240.5Z"/><path class="cls-1" d="M139.88,216.2c0,3.33,1.09,5.28,5.34,5.28a63.72,63.72,0,0,0,9.88-.92l1.21,7.53a52,52,0,0,1-11.09,1.2c-9.65,0-14-4.76-14-11.72v-16c0-7,4.31-11.72,14-11.72a52,52,0,0,1,11.09,1.21l-1.21,7.52a63.72,63.72,0,0,0-9.88-.92c-4.25,0-5.34,2-5.34,5.29Z"/><path class="cls-1" d="M174.65,229.29a31.55,31.55,0,0,1-12.35-2.47l1.43-6.66a36.42,36.42,0,0,0,11,1.84c4.42,0,5.28-.87,5.28-4.08,0-3.45-.17-3.85-6.43-5.23-9.25-2-10.63-3.85-10.63-12.12,0-7.63,2.7-10.68,13.22-10.68a55.65,55.65,0,0,1,11.6,1.27l-.87,7.23a58,58,0,0,0-10.62-1.09c-3.85,0-4.71.69-4.71,3.51,0,3.67.17,3.73,6.2,5.16,10.34,2.47,10.86,4.49,10.86,12S186.19,229.29,174.65,229.29Z"/><path class="cls-1" d="M195.34,190.47H204v38.25h-8.61Zm9.7,18.72,10.34-18.72h9.71l-10.74,18.72,11.54,19.53h-9.7Z"/><path class="cls-1" d="M39.63,216.08v0a5.63,5.63,0,0,0,2.06,7.68h0L61.15,235h0A5.62,5.62,0,0,0,68.83,233h0l13-22.53H42.9Z"/><path class="cls-3" d="M301.55,181.4h0a8.46,8.46,0,0,0-5.12-3.93h0l-12-3.21L206,38.44l-8.93,5.15-.81.44A76,76,0,0,0,161,130.1l-16.15,31.71-.21,3.27L195,176.54l31.71-2.79A75.52,75.52,0,0,0,258,163.88q2.82-1.65,5.46-3.48l11.24,19.47-3.22,12h0a8.43,8.43,0,0,0,.84,6.4h0l5.6,9.69h38.94ZM198.42,106a19.65,19.65,0,1,0,15.06-7A19.64,19.64,0,0,0,198.42,106Zm36.36,49.37A56,56,0,0,1,202,54l55.67,96.4A55.57,55.57,0,0,1,234.78,155.36Z"/><path class="cls-2" d="M274.47,197l0-.06a6,6,0,0,1-.57-4.47l.63-2.39,2.57-9.62.27-1-.51-.88-11.25-19.47-1.34-2.33-2.19,1.54c-1.75,1.22-3.53,2.35-5.28,3.37a72.93,72.93,0,0,1-30.32,9.56L196.22,174,149,159.2l14.25-28,.44-.86-.26-.92A73.48,73.48,0,0,1,197.5,46.16l.41-.22.4-.22,6.8-3.93L282.3,175.48l.52.88,1,.26,9.58,2.57h0l2.41.65a5.94,5.94,0,0,1,3.63,2.78l13.2,22.87H279.36Zm-61-95.6a17.18,17.18,0,1,1-13.18,6.13A17.16,17.16,0,0,1,213.48,101.44Zm-9.32-48.65-1.36-2.36L200.59,52a58.4,58.4,0,0,0,58.12,100.64l2.47-1.12-1.35-2.35Z"/><path class="cls-4" d="M132.69,131.25a19.65,19.65,0,1,0,2.42-27.68A19.64,19.64,0,0,0,132.69,131.25Z"/><path class="cls-3" d="M200.16,130.1A76,76,0,0,0,164.93,44l-.81-.44-8.93-5.15L76.77,174.25l-12,3.21h0a8.42,8.42,0,0,0-5.11,3.93L44.32,208H83.26l5.6-9.69h0a8.43,8.43,0,0,0,.85-6.4h0l-3.22-12L97.75,160.4q2.63,1.83,5.46,3.48a75.43,75.43,0,0,0,31.33,9.87l92,8.07Zm-25.24-2.72a56,56,0,0,1-71.41,23L159.18,54A56,56,0,0,1,174.92,127.38Z"/><path class="cls-5" d="M39.63,216.08v0a5.63,5.63,0,0,0,2.06,7.68h0L61.15,235h0A5.62,5.62,0,0,0,68.83,233h0l13-22.53H42.9Z"/><polygon class="cls-1" points="137.42 176.48 134.7 181.82 166.53 179.03 137.42 176.48"/></svg>